# xmcd
#
# Track frame offsets:
#	150
#	15037
#	29817
#	45542
#	57802
#	74762
#	86562
#	99707
#	118817
#	133347
#	146815
#
# Disc length: 2228 seconds
#
# Revision: 1
# Processed by: cddbd v1.5.2PL0 Copyright (c) Steve Scherf et al.
# Submitted via: audiograbber 1.83.01
#
DISCID=a208b20b
DTITLE=Heridi's Rising Stars - Still Alive
DYEAR=1900
DGENRE=Country
TTITLE0=Heridi's Rising Stars - Truckdrivin Man
TTITLE1=Heridi's Rising Stars - The Leaving Side
TTITLE2=Heridi's Rising Stars - The Door Is Always Open
TTITLE3=Heridi's Rising Stars - On The Road Again
TTITLE4=Heridi's Rising Stars - 18 Wheels
TTITLE5=Heridi's Rising Stars - Walkin Talkin Cryin
TTITLE6=Heridi's Rising Stars - Better Man
TTITLE7=Heridi's Rising Stars - Together Again
TTITLE8=Heridi's Rising Stars - One Promise Too Late
TTITLE9=Heridi's Rising Stars - One Love
TTITLE10=Heridi's Rising Stars - Country Roads
EXTD=
EXTT0=
EXTT1=
EXTT2=
EXTT3=
EXTT4=
EXTT5=
EXTT6=
EXTT7=
EXTT8=
EXTT9=
EXTT10=
PLAYORDER=
